<svg xmlns="http://www.w3.org/2000/svg" viewBox="0 0 385.143 177.314"><path fill="#F27321" d="M205.497 60.36V20.22"/><path fill-rule="evenodd" clip-rule="evenodd" fill="#F27321" d="M234.325 5.002c-7.223.02-13.073 5.873-13.085 13.098V60.102c0 15.913-12.947 28.86-28.86 28.86-15.917 0-28.863-12.947-28.863-28.86 0-15.916 12.946-28.862 28.863-28.862 3.19 0 6.262.524 9.134 1.487 2.117-3.363 3.976-8.842 3.983-12.48v14.16-14.184a41.917 41.917 0 0 0-13.117-2.104c-23.186 0-41.983 18.793-41.983 41.98 0 23.187 18.798 41.978 41.983 41.978s41.98-18.79 41.98-41.978V5.002h-.035z"/><path fill="#F27321" d="M205.496 20.222h.002v14.183h-.002z"/><path fill="#F27321" d="M218.58 5.002c-7.224.02-13.07 5.873-13.083 13.098V60.117c0 .083-.01.164-.013.243-.14 7.113-5.96 12.86-13.104 12.86-7.146 0-12.965-5.747-13.107-12.86 0-.085-.01-.172-.01-.26 0-2.494.782-6.56 3.668-9.97 4.477-5.22 12.48-10.36 16.882-15.198a26.23 26.23 0 0 0-7.432-1.07c-14.493 0-26.24 11.748-26.24 26.238s11.747 26.237 26.24 26.237c14.49 0 26.238-11.748 26.238-26.237V5.002h-.04z"/><g fill="#F27321"><path d="M26.6 141.124v14.173c0 6.93-5.078 10.707-11.317 10.707-6.754 0-11.458-4-11.458-10.174 0-6.085 4.844-10.175 11.458-10.175 3.585 0 7.032 1.467 8.707 3.823-.094-.758-.094-1.824-.094-2.667v-5.687c0-.888.47-1.51 1.353-1.51.884 0 1.35.623 1.35 1.51zM15.282 163.56c4.844 0 8.567-3.064 8.567-7.73 0-5.197-3.725-7.73-8.568-7.73-4.846 0-8.616 2.755-8.616 7.73 0 4.976 3.77 7.73 8.616 7.73zM39.444 145.655c6.617 0 11.46 4.09 11.46 10.175s-4.843 10.174-11.46 10.174c-6.61 0-11.455-4.09-11.455-10.174s4.845-10.175 11.454-10.175zm0 2.445c-4.84 0-8.61 2.754-8.61 7.73 0 4.976 3.77 7.73 8.61 7.73 4.847 0 8.62-2.755 8.62-7.73 0-4.976-3.773-7.73-8.62-7.73zM55.93 166.582c1.534 1.91 3.91 3.285 7.45 3.285 5.45 0 8.43-2.975 8.756-7.952-1.77 2.4-5.078 3.912-8.71 3.912-6.797 0-11.362-3.955-11.362-10.13 0-5.998 4.89-10.042 11.362-10.042 6.335 0 11.41 3.866 11.41 11.108v4.087c0 6.93-3.91 11.462-11.503 11.462-3.26 0-6.146-.845-8.428-2.89-.885-.755-1.724-1.82-1.724-2.575s.605-1.244 1.303-1.244c.655 0 .98.4 1.447.98zm7.59-3.11c4.844 0 8.477-2.977 8.477-7.73 0-4.4-3.91-7.642-8.57-7.642-4.842 0-8.52 2.798-8.52 7.687-.002 4.93 3.77 7.685 8.612 7.685zM99.002 141.124v14.173c0 6.93-5.075 10.707-11.315 10.707-6.753 0-11.458-4-11.458-10.174 0-6.085 4.842-10.175 11.457-10.175 3.584 0 7.03 1.467 8.707 3.823-.094-.758-.094-1.824-.094-2.667v-5.687c0-.888.467-1.51 1.354-1.51.884 0 1.348.623 1.348 1.51zM87.687 163.56c4.843 0 8.568-3.064 8.568-7.73 0-5.197-3.726-7.73-8.568-7.73-4.845 0-8.615 2.755-8.615 7.73 0 4.976 3.77 7.73 8.615 7.73zM123.167 156.185v8.043c0 .888-.466 1.51-1.35 1.51-.885 0-1.352-.622-1.352-1.51v-.356c0-.532 0-1.198.094-1.777-1.633 2.444-5.077 3.91-8.71 3.91-6.613 0-11.456-4.09-11.456-10.174s4.843-10.174 11.457-10.174c6.243 0 11.317 3.643 11.317 10.53zm-11.315 7.376c4.84 0 8.522-2.532 8.522-7.73 0-4.664-3.682-7.73-8.522-7.73-4.845 0-8.616 2.755-8.616 7.73 0 4.976 3.77 7.73 8.616 7.73zM127.728 147.433v7.554c0 5.24 3.025 8.308 8.29 8.308 5.17 0 8.29-3.02 8.29-8.53v-7.33c0-.888.464-1.513 1.35-1.513.887 0 1.35.625 1.35 1.512v13.46c0 7.02-4.284 11.42-10.57 11.42-3.26 0-6.426-.712-8.614-2.89-.888-.887-1.724-1.82-1.724-2.575 0-.712.604-1.29 1.257-1.29.697 0 1.07.445 1.49.98 1.724 2.222 3.866 3.33 7.683 3.33 4.24 0 7.592-3.152 7.78-8.085-1.724 2.487-5.03 3.908-8.24 3.908-6.99 0-11.04-4.485-11.04-10.573v-7.686c0-.887.464-1.512 1.35-1.512s1.348.624 1.348 1.51zM152.08 161.562c1.723 1.154 4.005 2 6.985 2 3.26 0 7.59-1.022 7.59-3.956 0-2.444-2.096-2.798-5.168-2.798h-3.726c-3.818 0-8.01-.577-8.01-5.243 0-4.132 4.982-5.91 9.5-5.91 2.607 0 5.45.533 7.404 1.558.7.355 1.212.71 1.212 1.42 0 .623-.512 1.2-1.212 1.2-.605 0-1.303-.398-2.047-.71-1.492-.62-3.402-1.022-5.313-1.022-3.117 0-6.705 1.022-6.705 3.466 0 2.266 2.003 2.8 4.61 2.8h4.797c4.332 0 7.498 1.376 7.498 5.24 0 4.135-4.658 6.4-10.338 6.4-3.122 0-6.193-.712-8.617-2.18-.65-.4-1.49-.977-1.49-1.775 0-.71.465-1.243 1.21-1.243.61 0 1.214.353 1.82.755zM182.856 147.433v7.554c0 5.24 3.027 8.308 8.29 8.308 5.173 0 8.29-3.02 8.29-8.53v-7.33c0-.888.466-1.513 1.353-1.513.883 0 1.347.625 1.347 1.512v13.46c0 7.02-4.283 11.42-10.57 11.42-3.26 0-6.427-.712-8.617-2.89-.884-.887-1.723-1.82-1.723-2.575 0-.712.605-1.29 1.258-1.29.697 0 1.07.445 1.49.98 1.722 2.222 3.867 3.33 7.685 3.33 4.238 0 7.592-3.152 7.777-8.085-1.723 2.487-5.03 3.908-8.243 3.908-6.985 0-11.038-4.485-11.038-10.573v-7.686c0-.887.468-1.512 1.352-1.512.885 0 1.348.624 1.348 1.51zM215.218 145.655c6.617 0 11.457 4.09 11.457 10.175s-4.84 10.174-11.457 10.174c-6.612 0-11.453-4.09-11.453-10.174s4.84-10.175 11.453-10.175zm0 2.445c-4.842 0-8.615 2.754-8.615 7.73 0 4.976 3.773 7.73 8.615 7.73 4.845 0 8.62-2.755 8.62-7.73 0-4.976-3.775-7.73-8.62-7.73zM231.702 166.582c1.537 1.91 3.913 3.285 7.45 3.285 5.45 0 8.43-2.975 8.76-7.952-1.77 2.4-5.078 3.912-8.714 3.912-6.796 0-11.36-3.955-11.36-10.13 0-5.998 4.888-10.042 11.36-10.042 6.338 0 11.41 3.866 11.41 11.108v4.087c0 6.93-3.908 11.462-11.502 11.462-3.26 0-6.146-.845-8.43-2.89-.885-.755-1.723-1.82-1.723-2.575s.605-1.244 1.303-1.244c.653 0 .98.4 1.446.98zm7.592-3.11c4.845 0 8.478-2.977 8.478-7.73 0-4.4-3.913-7.642-8.573-7.642-4.843 0-8.522 2.798-8.522 7.687 0 4.93 3.772 7.685 8.616 7.685zM274.773 156.185v8.043c0 .888-.463 1.51-1.35 1.51-.883 0-1.35-.622-1.35-1.51v-.356c0-.532 0-1.198.097-1.777-1.634 2.444-5.078 3.91-8.713 3.91-6.61 0-11.456-4.09-11.456-10.174s4.846-10.174 11.457-10.174c6.242 0 11.316 3.643 11.316 10.53zm-11.315 7.376c4.844 0 8.524-2.532 8.524-7.73 0-4.664-3.68-7.73-8.524-7.73-4.843 0-8.614 2.755-8.614 7.73 0 4.976 3.77 7.73 8.614 7.73zM286.27 159.605c-.278-1.11-.372-2.71-.372-4.487v-7.686c0-.887.467-1.512 1.353-1.512.884 0 1.352.625 1.352 1.512v8.397c0 4.53 1.49 7.685 5.822 7.685 4.237 0 5.82-3.065 5.82-7.508v-8.575c0-.887.467-1.512 1.352-1.512.884 0 1.35.625 1.35 1.512v8.575c0 4.442 1.537 7.508 5.824 7.508 4.33 0 5.82-3.155 5.82-7.686v-8.398c0-.887.464-1.512 1.35-1.512.884 0 1.35.625 1.35 1.512v7.686c0 1.777-.093 3.377-.374 4.487-1.022 4.044-3.956 6.398-8.146 6.398-3.82 0-6.15-1.867-7.174-4.62-1.025 2.753-3.354 4.62-7.172 4.62-4.194 0-7.13-2.354-8.153-6.398zM339.73 151.965c0 4.043-3.307 5.332-8.104 5.332h-9.737c.747 3.954 4.102 6.264 8.713 6.264 1.58 0 3.534-.4 5.17-1.243.602-.313 1.348-.888 1.952-.888.654 0 1.164.53 1.164 1.197 0 .623-.605 1.112-1.212 1.467-2.235 1.332-4.98 1.91-7.216 1.91-6.565 0-11.55-3.73-11.55-10.086 0-6.22 4.844-10.263 11.455-10.263 4.66 0 9.363 2.312 9.363 6.31zm-8.103 2.976c2.84 0 5.308-.267 5.308-2.976 0-2.71-3.397-3.865-6.566-3.865-4.706 0-8.058 2.396-8.57 6.84h9.827zM363.43 156.185v8.043c0 .888-.466 1.51-1.352 1.51-.883 0-1.35-.622-1.35-1.51v-.356c0-.532 0-1.198.093-1.777-1.63 2.444-5.075 3.91-8.707 3.91-6.614 0-11.456-4.09-11.456-10.174s4.842-10.174 11.456-10.174c6.24 0 11.317 3.643 11.317 10.53zm-11.317 7.376c4.845 0 8.522-2.532 8.522-7.73 0-4.664-3.678-7.73-8.522-7.73s-8.62 2.755-8.62 7.73c0 4.976 3.776 7.73 8.62 7.73zM379.68 148.675c-.747 0-1.537-.53-3.354-.53-5.03 0-7.87 3.065-7.87 8.308v7.775c0 .888-.466 1.51-1.352 1.51-.883 0-1.35-.622-1.35-1.51v-8.043c0-6.085 3.82-10.53 10.524-10.53.932 0 2.607.18 3.635.622.56.225 1.024.623 1.024 1.246 0 .71-.514 1.152-1.256 1.152z"/></g></svg>