<svg xmlns="http://www.w3.org/2000/svg" width="174.571" height="48.546" viewBox="0 0 174.571 48.546"><path fill="#F27321" d="M26.762 27.085V8.783"/><path fill-rule="evenodd" clip-rule="evenodd" fill="#F27321" d="M39.902 1.845a5.98 5.98 0 0 0-5.965 5.973v19.15c0 7.256-5.902 13.16-13.158 13.16S7.62 34.222 7.62 26.966c0-7.257 5.903-13.16 13.16-13.16 1.454 0 2.854.24 4.163.68.967-1.535 1.813-4.032 1.816-5.692v6.456-6.466a19.125 19.125 0 0 0-5.98-.958c-10.57 0-19.143 8.57-19.143 19.14 0 10.572 8.57 19.142 19.142 19.142s19.14-8.57 19.14-19.14V1.844h-.018z"/><path fill="#F27321" d="M26.76 8.784h.002v6.467h-.002z"/><path fill="#F27321" d="M32.725 1.845a5.978 5.978 0 0 0-5.963 5.973v8.79h-.002v10.368c0 .037-.005.075-.005.11-.064 3.244-2.718 5.863-5.976 5.863s-5.91-2.62-5.976-5.863c0-.04-.007-.08-.007-.12 0-1.137.357-2.99 1.674-4.545 2.04-2.38 5.69-4.723 7.696-6.93a11.98 11.98 0 0 0-3.388-.487c-6.607 0-11.964 5.357-11.964 11.964s5.356 11.96 11.964 11.96S32.74 33.576 32.74 26.97V1.844h-.015zM65.337 2.658v8.723c0 4.267-2.98 6.592-6.646 6.592-3.963 0-6.726-2.46-6.726-6.262 0-3.746 2.844-6.262 6.727-6.262 2.107 0 4.13.902 5.115 2.352-.055-.466-.055-1.122-.055-1.642v-3.5c0-.547.273-.93.793-.93s.794.383.794.93zm-6.647 13.81c2.845 0 5.032-1.887 5.032-4.758 0-3.2-2.188-4.758-5.032-4.758-2.843 0-5.058 1.695-5.058 4.758s2.216 4.758 5.058 4.758zM72.882 5.448c3.884 0 6.728 2.516 6.728 6.262 0 3.747-2.844 6.262-6.728 6.262s-6.728-2.515-6.728-6.262c0-3.747 2.844-6.262 6.728-6.262zm0 1.503c-2.843 0-5.06 1.696-5.06 4.76s2.217 4.757 5.06 4.757c2.844 0 5.06-1.695 5.06-4.758s-2.216-4.76-5.06-4.76zM82.56 18.327c.904 1.176 2.3 2.023 4.377 2.023 3.198 0 4.948-1.832 5.14-4.894-1.038 1.476-2.98 2.405-5.113 2.405-3.992 0-6.672-2.432-6.672-6.233 0-3.692 2.87-6.18 6.672-6.18 3.72 0 6.7 2.378 6.7 6.836V14.8c0 4.265-2.298 7.054-6.754 7.054-1.915 0-3.61-.52-4.95-1.777-.52-.465-1.013-1.122-1.013-1.586 0-.465.356-.765.767-.765.382 0 .573.247.846.602zm4.458-1.914c2.845 0 4.977-1.833 4.977-4.758 0-2.708-2.297-4.704-5.03-4.704-2.845 0-5.005 1.724-5.005 4.732 0 3.035 2.214 4.73 5.058 4.73zM107.854 2.658v8.723c0 4.267-2.982 6.592-6.645 6.592-3.967 0-6.73-2.46-6.73-6.262 0-3.746 2.845-6.262 6.73-6.262 2.104 0 4.128.902 5.112 2.352-.055-.465-.055-1.122-.055-1.642v-3.5c0-.547.273-.93.793-.93s.794.383.794.93zm-6.645 13.81c2.843 0 5.03-1.887 5.03-4.758 0-3.2-2.188-4.758-5.03-4.758s-5.06 1.695-5.06 4.758 2.215 4.758 5.06 4.758zM122.044 11.928v4.95c0 .547-.274.93-.793.93-.52 0-.79-.383-.79-.93v-.22c0-.327 0-.737.053-1.093-.957 1.504-2.98 2.407-5.113 2.407-3.884 0-6.728-2.515-6.728-6.262 0-3.746 2.844-6.262 6.728-6.262 3.663 0 6.644 2.242 6.644 6.48zm-6.645 4.54c2.842 0 5.004-1.56 5.004-4.758 0-2.87-2.162-4.758-5.005-4.758-2.846 0-5.06 1.695-5.06 4.758s2.215 4.758 5.06 4.758zM124.722 6.542v4.648c0 3.227 1.778 5.114 4.868 5.114 3.035 0 4.866-1.86 4.866-5.25V6.54c0-.547.274-.93.794-.93s.793.382.793.93v8.286c0 4.32-2.516 7.027-6.207 7.027-1.915 0-3.774-.437-5.06-1.777-.52-.548-1.013-1.122-1.013-1.586 0-.438.356-.793.74-.793.41 0 .63.272.875.6 1.012 1.37 2.268 2.052 4.51 2.052 2.49 0 4.46-1.94 4.567-4.977-1.01 1.53-2.952 2.406-4.84 2.406-4.1 0-6.48-2.76-6.48-6.507v-4.73c0-.547.274-.93.793-.93.52 0 .794.38.794.93zM139.022 15.237c1.01.71 2.35 1.23 4.102 1.23 1.914 0 4.457-.628 4.457-2.434 0-1.503-1.23-1.723-3.034-1.723h-2.188c-2.243 0-4.704-.355-4.704-3.227 0-2.542 2.926-3.636 5.58-3.636 1.53 0 3.198.327 4.347.956.41.22.713.438.713.875 0 .383-.302.738-.712.738-.353 0-.765-.247-1.2-.437-.877-.385-1.997-.63-3.118-.63-1.832 0-3.938.63-3.938 2.13 0 1.397 1.175 1.725 2.706 1.725h2.816c2.544 0 4.402.848 4.402 3.226 0 2.544-2.734 3.94-6.07 3.94-1.833 0-3.638-.44-5.06-1.34-.383-.247-.874-.603-.874-1.095 0-.438.272-.765.71-.765.357.002.713.22 1.068.467zM54.098 31.506v4.65c0 3.225 1.776 5.112 4.867 5.112 3.035 0 4.867-1.86 4.867-5.25v-4.512c0-.547.273-.93.793-.93s.793.382.793.93v8.286c0 4.32-2.516 7.028-6.207 7.028-1.913 0-3.773-.437-5.058-1.777-.52-.547-1.013-1.12-1.013-1.586 0-.438.355-.793.737-.793.41 0 .63.273.876.6 1.012 1.37 2.27 2.052 4.512 2.052 2.488 0 4.457-1.94 4.566-4.977-1.012 1.53-2.952 2.405-4.84 2.405-4.1 0-6.48-2.76-6.48-6.508v-4.73c0-.547.273-.93.794-.93.52 0 .794.382.794.93zM73.1 30.413c3.884 0 6.73 2.516 6.73 6.262 0 3.747-2.846 6.262-6.73 6.262-3.883 0-6.726-2.516-6.726-6.262 0-3.747 2.843-6.262 6.727-6.262zm0 1.503c-2.842 0-5.06 1.696-5.06 4.758 0 3.063 2.218 4.758 5.06 4.758 2.845 0 5.06-1.695 5.06-4.758 0-3.062-2.216-4.758-5.06-4.758zM82.78 43.292c.9 1.176 2.295 2.023 4.374 2.023 3.2 0 4.95-1.833 5.14-4.895-1.038 1.476-2.98 2.407-5.11 2.407-3.994 0-6.674-2.434-6.674-6.235 0-3.69 2.87-6.18 6.673-6.18 3.718 0 6.7 2.38 6.7 6.836v2.516c0 4.266-2.298 7.055-6.758 7.055-1.912 0-3.607-.52-4.947-1.778-.52-.465-1.012-1.12-1.012-1.586 0-.466.355-.766.767-.766.38 0 .573.247.846.602zm4.457-1.914c2.843 0 4.976-1.833 4.976-4.76 0-2.706-2.297-4.702-5.03-4.702-2.845 0-5.005 1.723-5.005 4.73 0 3.037 2.216 4.732 5.06 4.732zM108.072 36.893v4.95c0 .548-.273.93-.793.93s-.794-.382-.794-.93v-.218c0-.328 0-.738.055-1.094-.956 1.505-2.98 2.407-5.112 2.407-3.884 0-6.728-2.516-6.728-6.262 0-3.746 2.844-6.262 6.728-6.262 3.664 0 6.644 2.24 6.644 6.48zm-6.644 4.54c2.844 0 5.003-1.56 5.003-4.76 0-2.87-2.158-4.757-5.002-4.757-2.845 0-5.06 1.696-5.06 4.758 0 3.063 2.215 4.758 5.06 4.758zM116.103 39c-.163-.685-.22-1.67-.22-2.763v-4.73c0-.547.274-.93.793-.93.52 0 .795.382.795.93v5.168c0 2.79.875 4.73 3.418 4.73 2.49 0 3.418-1.886 3.418-4.62v-5.28c0-.546.274-.93.794-.93s.792.383.792.93v5.28c0 2.734.903 4.62 3.42 4.62 2.543 0 3.418-1.94 3.418-4.73v-5.168c0-.547.273-.93.793-.93s.793.382.793.93v4.73c0 1.094-.055 2.078-.22 2.762-.602 2.487-2.324 3.937-4.785 3.937-2.24 0-3.61-1.148-4.21-2.844-.602 1.695-1.97 2.844-4.212 2.844-2.46 0-4.185-1.45-4.785-3.938zM147.493 34.296c0 2.488-1.942 3.28-4.76 3.28h-5.714c.437 2.435 2.405 3.856 5.113 3.856.93 0 2.077-.245 3.036-.765.353-.192.79-.547 1.145-.547.385 0 .685.33.685.74 0 .382-.356.683-.71.9-1.314.822-2.928 1.177-4.24 1.177-3.854 0-6.78-2.296-6.78-6.208 0-3.83 2.843-6.317 6.726-6.317 2.735 0 5.497 1.42 5.497 3.883zm-4.76 1.832c1.67 0 3.118-.165 3.118-1.832 0-1.668-1.994-2.38-3.854-2.38-2.762 0-4.73 1.478-5.03 4.212h5.768zM161.41 36.893v4.95c0 .548-.273.93-.794.93-.52 0-.792-.382-.792-.93v-.218c0-.328 0-.738.054-1.094-.956 1.505-2.98 2.407-5.112 2.407-3.883 0-6.728-2.516-6.728-6.262 0-3.746 2.845-6.262 6.728-6.262 3.663 0 6.644 2.24 6.644 6.48zm-6.644 4.54c2.844 0 5.004-1.56 5.004-4.76 0-2.87-2.16-4.757-5.004-4.757-2.845 0-5.06 1.696-5.06 4.758 0 3.063 2.215 4.758 5.06 4.758zM170.952 32.272c-.438 0-.903-.33-1.97-.33-2.953 0-4.62 1.888-4.62 5.115v4.785c0 .548-.274.93-.794.93s-.794-.382-.794-.93v-4.95c0-3.745 2.243-6.48 6.18-6.48.55 0 1.534.11 2.135.382.327.137.6.383.6.766 0 .438-.3.712-.738.712z"/></svg>