<svg xmlns="http://www.w3.org/2000/svg" width="283.727" height="48.546" viewBox="0 0 283.727 48.546"><g fill="#F27321"><path d="M67.744 2.234v8.9c0 4.35-3.04 6.723-6.78 6.723-4.044 0-6.86-2.512-6.86-6.39 0-3.82 2.9-6.387 6.86-6.387 2.15 0 4.214.92 5.218 2.4-.055-.477-.055-1.145-.055-1.675v-3.57c0-.56.277-.95.81-.95s.807.39.807.95m-6.78 14.088c2.9 0 5.134-1.925 5.134-4.855 0-3.264-2.232-4.854-5.133-4.854s-5.162 1.73-5.162 4.854c0 3.126 2.26 4.855 5.162 4.855M75.44 5.08c3.962 0 6.864 2.567 6.864 6.39 0 3.822-2.902 6.388-6.863 6.388s-6.862-2.566-6.862-6.39c0-3.82 2.902-6.387 6.863-6.387m0 1.534c-2.9 0-5.16 1.73-5.16 4.854 0 3.125 2.26 4.855 5.16 4.855 2.903 0 5.163-1.73 5.163-4.855 0-3.124-2.26-4.854-5.162-4.854M85.314 18.22c.922 1.2 2.344 2.064 4.465 2.064 3.263 0 5.05-1.868 5.243-4.993-1.06 1.507-3.04 2.456-5.217 2.456-4.072 0-6.807-2.483-6.807-6.36 0-3.767 2.927-6.305 6.806-6.305 3.795 0 6.836 2.428 6.836 6.975v2.567c0 4.35-2.346 7.197-6.893 7.197-1.952 0-3.683-.532-5.05-1.814-.53-.475-1.03-1.145-1.03-1.618 0-.475.36-.78.78-.78.39 0 .585.25.864.612m4.547-1.953c2.903 0 5.08-1.87 5.08-4.854 0-2.762-2.345-4.798-5.134-4.798-2.902 0-5.105 1.757-5.105 4.826 0 3.098 2.26 4.827 5.16 4.827M111.117 2.234v8.9c0 4.35-3.04 6.723-6.78 6.723-4.044 0-6.86-2.512-6.86-6.39 0-3.82 2.9-6.387 6.86-6.387 2.15 0 4.214.92 5.218 2.4-.057-.477-.057-1.145-.057-1.675v-3.57c0-.56.28-.95.81-.95s.81.39.81.95m-6.78 14.088c2.9 0 5.133-1.925 5.133-4.855 0-3.264-2.23-4.854-5.132-4.854s-5.162 1.73-5.162 4.854c0 3.126 2.262 4.855 5.162 4.855M125.594 11.69v5.05c0 .56-.277.95-.81.95s-.81-.392-.81-.95v-.222c0-.334 0-.753.057-1.116-.976 1.534-3.04 2.455-5.216 2.455-3.96 0-6.863-2.567-6.863-6.39 0-3.82 2.903-6.387 6.864-6.387 3.74 0 6.78 2.288 6.78 6.61m-6.78 4.633c2.9 0 5.105-1.59 5.105-4.855 0-2.93-2.206-4.854-5.106-4.854-2.902 0-5.16 1.73-5.16 4.854 0 3.126 2.258 4.855 5.16 4.855M128.326 6.196v4.743c0 3.29 1.813 5.216 4.967 5.216 3.096 0 4.965-1.897 4.965-5.357V6.195c0-.558.28-.948.81-.948s.808.39.808.948v8.454c0 4.408-2.566 7.17-6.332 7.17-1.953 0-3.85-.448-5.162-1.814-.53-.558-1.03-1.145-1.03-1.62 0-.445.362-.808.75-.808.42 0 .644.28.894.614 1.033 1.396 2.316 2.093 4.604 2.093 2.54 0 4.547-1.98 4.66-5.078-1.03 1.562-3.014 2.455-4.94 2.455-4.183 0-6.61-2.817-6.61-6.64V6.197c0-.558.28-.948.81-.948.527 0 .806.39.806.948M142.912 15.067c1.033.725 2.4 1.256 4.186 1.256 1.953 0 4.547-.642 4.547-2.483 0-1.535-1.254-1.758-3.098-1.758h-2.23c-2.287 0-4.8-.362-4.8-3.292 0-2.595 2.985-3.71 5.692-3.71 1.563 0 3.265.334 4.435.977.418.223.727.445.727.892 0 .39-.31.752-.727.752-.36 0-.78-.25-1.227-.446-.893-.39-2.037-.642-3.18-.642-1.87 0-4.02.642-4.02 2.176 0 1.423 1.2 1.758 2.764 1.758h2.873c2.594 0 4.492.865 4.492 3.292 0 2.595-2.79 4.017-6.193 4.017-1.87 0-3.71-.446-5.162-1.366-.39-.25-.893-.613-.893-1.116 0-.447.276-.78.724-.78.364 0 .727.222 1.088.473M161.352 6.196v4.743c0 3.29 1.813 5.216 4.965 5.216 3.098 0 4.965-1.897 4.965-5.357V6.195c0-.558.28-.948.81-.948s.808.39.808.948v8.454c0 4.408-2.566 7.17-6.332 7.17-1.95 0-3.85-.448-5.16-1.814-.53-.558-1.033-1.145-1.033-1.62 0-.445.363-.808.754-.808.417 0 .642.28.892.614 1.033 1.396 2.316 2.093 4.604 2.093 2.54 0 4.547-1.98 4.658-5.078-1.03 1.562-3.012 2.455-4.938 2.455-4.186 0-6.613-2.817-6.613-6.64V6.197c0-.558.28-.948.81-.948s.81.39.81.948M180.736 5.08c3.96 0 6.863 2.567 6.863 6.39 0 3.822-2.903 6.388-6.864 6.388-3.963 0-6.863-2.566-6.863-6.39 0-3.82 2.9-6.387 6.863-6.387m0 1.534c-2.902 0-5.16 1.73-5.16 4.854 0 3.125 2.258 4.855 5.16 4.855s5.16-1.73 5.16-4.855c0-3.124-2.257-4.854-5.16-4.854M190.61 18.22c.92 1.2 2.343 2.064 4.462 2.064 3.266 0 5.05-1.868 5.246-4.993-1.06 1.507-3.04 2.456-5.217 2.456-4.07 0-6.806-2.483-6.806-6.36 0-3.767 2.928-6.305 6.807-6.305 3.796 0 6.835 2.428 6.835 6.975v2.567c0 4.35-2.344 7.197-6.89 7.197-1.952 0-3.683-.532-5.05-1.814-.53-.475-1.033-1.145-1.033-1.618 0-.475.363-.78.783-.78.39 0 .585.25.864.612m4.546-1.953c2.902 0 5.078-1.87 5.078-4.854 0-2.762-2.344-4.798-5.133-4.798-2.9 0-5.104 1.757-5.104 4.826 0 3.098 2.26 4.827 5.16 4.827M216.412 11.69v5.05c0 .56-.277.95-.81.95s-.808-.392-.808-.95v-.222c0-.334 0-.753.055-1.116-.978 1.534-3.042 2.455-5.218 2.455-3.96 0-6.863-2.567-6.863-6.39 0-3.82 2.9-6.387 6.862-6.387 3.74 0 6.78 2.288 6.78 6.61m-6.78 4.633c2.903 0 5.106-1.59 5.106-4.855 0-2.93-2.203-4.854-5.105-4.854-2.9 0-5.16 1.73-5.16 4.854 0 3.126 2.26 4.855 5.16 4.855M223.3 13.84c-.167-.697-.224-1.703-.224-2.818V6.196c0-.557.28-.948.81-.948s.808.39.808.948v5.272c0 2.846.895 4.827 3.488 4.827 2.54 0 3.488-1.925 3.488-4.715V6.196c0-.557.277-.948.81-.948.528 0 .808.39.808.948v5.384c0 2.79.92 4.715 3.486 4.715 2.596 0 3.488-1.98 3.488-4.827V6.196c0-.557.28-.948.81-.948s.81.39.81.948v4.827c0 1.115-.057 2.12-.225 2.817-.613 2.54-2.37 4.018-4.883 4.018-2.287 0-3.682-1.17-4.295-2.9-.616 1.73-2.01 2.9-4.298 2.9-2.512 0-4.27-1.48-4.883-4.02M255.322 9.042c0 2.54-1.982 3.348-4.854 3.348h-5.832c.447 2.482 2.455 3.934 5.22 3.934.946 0 2.118-.252 3.095-.782.362-.196.81-.56 1.173-.56.39 0 .697.336.697.755 0 .39-.363.698-.727.92-1.338.837-2.984 1.2-4.324 1.2-3.935 0-6.92-2.343-6.92-6.333 0-3.906 2.903-6.444 6.864-6.444 2.79 0 5.608 1.45 5.608 3.962m-4.853 1.87c1.7 0 3.18-.168 3.18-1.87 0-1.702-2.036-2.427-3.935-2.427-2.818 0-4.826 1.506-5.133 4.296h5.887zM269.52 11.69v5.05c0 .56-.28.95-.81.95-.528 0-.808-.392-.808-.95v-.222c0-.334 0-.753.055-1.116-.977 1.534-3.04 2.455-5.217 2.455-3.96 0-6.863-2.567-6.863-6.39 0-3.82 2.902-6.387 6.863-6.387 3.74 0 6.78 2.288 6.78 6.61m-6.78 4.633c2.902 0 5.105-1.59 5.105-4.855 0-2.93-2.203-4.854-5.105-4.854s-5.16 1.73-5.16 4.854c0 3.126 2.258 4.855 5.16 4.855M279.254 6.977c-.447 0-.922-.334-2.01-.334-3.014 0-4.715 1.925-4.715 5.218v4.883c0 .558-.28.948-.812.948-.527 0-.81-.39-.81-.947v-5.05c0-3.822 2.29-6.61 6.308-6.61.557 0 1.563.11 2.176.39.334.14.613.39.613.78 0 .445-.306.724-.75.724M27.092 27.505V8.495"/><path fill-rule="evenodd" clip-rule="evenodd" d="M40.742 1.29a6.212 6.212 0 0 0-6.195 6.204v19.889c0 7.535-6.13 13.666-13.666 13.666-7.536 0-13.667-6.133-13.667-13.67 0-7.535 6.13-13.666 13.668-13.666 1.513 0 2.966.248 4.325.705 1.004-1.594 1.883-4.188 1.887-5.912v6.706-6.717a19.83 19.83 0 0 0-6.21-.996C9.9 7.5 1 16.403 1 27.38c0 10.98 8.902 19.88 19.88 19.88s19.878-8.9 19.878-19.88V1.29h-.016z"/><path d="M27.092 15.213V8.497v6.716zM33.287 1.29a6.214 6.214 0 0 0-6.195 6.204V27.39c0 .04-.004.077-.006.116-.066 3.367-2.822 6.088-6.205 6.088-3.384 0-6.138-2.72-6.204-6.088-.002-.042-.008-.083-.008-.125 0-1.18.37-3.104 1.738-4.72 2.12-2.47 5.908-4.905 7.994-7.196a12.41 12.41 0 0 0-3.52-.507c-6.863 0-12.426 5.564-12.426 12.425 0 6.86 5.563 12.424 12.426 12.424 6.86 0 12.424-5.563 12.424-12.424V1.29h-.017z"/></g></svg>