<svg xmlns="http://www.w3.org/2000/svg" viewBox="0 0 448.921 146.572"><g fill="#FFF" opacity=".8"><path d="M11.428 61.527a47.772 47.772 0 0 0 4.258-1.075c.688-.23 1.548-.615 2.58-1.16a73.586 73.586 0 0 0 3.353-1.893c1.203-.717 2.45-1.49 3.74-2.323 1.29-.83 2.537-1.647 3.74-2.45-.63 1.433-1.104 2.766-1.42 3.998-.314 1.234-.3 2.266.044 3.096.345.833 1.104 1.45 2.28 1.85 1.174.4 2.937.516 5.288.344 1.948-.172 4.085-.615 6.407-1.333a79.948 79.948 0 0 0 6.922-2.493 101.823 101.823 0 0 0 6.708-3.053 203.934 203.934 0 0 0 5.89-3.053c.296-.158.57-.31.848-.463-.08.212-.177.42-.244.636-.545 1.75-.63 3.383-.26 4.902.375 1.52 1.22 2.782 2.538 3.784 1.32 1.002 3.097 1.504 5.332 1.504 3.727 0 7.01-.702 9.848-2.107 2.838-1.404 5.087-3.023 6.75-4.86 2.35 0 4.716-.285 7.096-.86a69.047 69.047 0 0 0 6.75-1.977 73.08 73.08 0 0 0 5.677-2.236l.236-.105c-.227.432-.454.864-.666 1.308a41.894 41.894 0 0 0-1.462 3.44c-.4 1.09-.688 1.92-.86 2.494-.17.516-.013 1.004.474 1.462.487.46 1.075.817 1.763 1.075.687.257 1.39.358 2.106.3.718-.057 1.247-.373 1.59-.946.573-.974 1.648-2.12 3.226-3.44a58.685 58.685 0 0 1 5.074-3.784 110.157 110.157 0 0 1 5.117-3.225c1.604-.946 2.723-1.505 3.354-1.677a253.08 253.08 0 0 0-1.98 3.354 41.09 41.09 0 0 0-1.676 3.182 28.898 28.898 0 0 0-1.332 3.268c-.688 2.18-.66 3.74.086 4.687.744.945 2.494 1.19 5.246.73 1.318-.23 3.053-.702 5.203-1.42 2.15-.715 4.442-1.547 6.88-2.493.29-.112.587-.23.878-.345a.433.433 0 0 0-.006-.035 213.7 213.7 0 0 0 8.843-3.99c1.534-.737 2.557-1.25 3.068-1.534.737-.454 1.193-.895 1.363-1.32s.142-.768-.085-1.023c-.228-.256-.567-.412-1.022-.47-.454-.055-.91.058-1.363.34-.34.172-1.208.598-2.6 1.28a218.13 218.13 0 0 1-5.07 2.387c-1.142.52-2.354 1.055-3.606 1.595v-.004a91.906 91.906 0 0 1-5.385 1.83c-1.806.544-3.17.788-4.085.73-.23 0-.244-.3-.043-.903.2-.602.544-1.39 1.032-2.365.485-.974 1.044-2.064 1.676-3.268a229.39 229.39 0 0 0 1.892-3.698c.63-1.26.932-2.292.903-3.096-.028-.802-.314-1.39-.86-1.763-.544-.373-1.318-.53-2.32-.473-1.004.058-2.137.288-3.397.688-1.032.402-2.294.99-3.784 1.763a70.8 70.8 0 0 0-4.602 2.623 72.34 72.34 0 0 0-4.6 3.096c-1.493 1.09-2.726 2.122-3.7 3.096.69-1.26 1.362-2.25 2.022-2.967a5.552 5.552 0 0 0 1.333-2.536c.114-.458-.015-.917-.387-1.376a4.282 4.282 0 0 0-1.42-1.118 5.11 5.11 0 0 0-1.848-.516c-.66-.056-1.22.086-1.678.43a5.39 5.39 0 0 0-.504.433 7.183 7.183 0 0 0-.957.34c-.92.403-2.15.934-3.7 1.592a75.58 75.58 0 0 1-5.073 1.934 70.57 70.57 0 0 1-5.633 1.677c-1.922.49-3.655.732-5.203.732.63-1.26.947-2.522.947-3.784 0-1.26-.374-2.365-1.118-3.31-.747-.947-1.865-1.72-3.355-2.323-1.492-.602-3.384-.903-5.677-.903-3.21 0-5.977.503-8.3 1.505-1.674.724-3.117 1.587-4.344 2.58-.03.015-.055.025-.084.043-.632.344-1.892 1.02-3.784 2.02a384.005 384.005 0 0 1-6.407 3.312 171.39 171.39 0 0 1-7.31 3.483c-2.495 1.118-4.66 1.964-6.494 2.537-1.835.632-3.282 1.004-4.343 1.118-1.062.116-1.72-.114-1.98-.688-.257-.572-.128-1.562.39-2.967.515-1.404 1.403-3.34 2.665-5.805l2.494-4.988c3.44-2.694 6.708-5.504 9.804-8.428s5.904-5.805 8.428-8.643c2.522-2.837 4.688-5.546 6.493-8.126s3.167-4.873 4.085-6.88c.916-2.006 1.333-3.668 1.247-4.988-.087-1.318-.79-2.12-2.108-2.408-1.72-.4-3.626-.186-5.72.645-2.093.832-4.2 2.093-6.32 3.784-2.12 1.692-4.186 3.685-6.19 5.977a55.95 55.95 0 0 0-5.42 7.31A247.148 247.148 0 0 0 39.68 32.46 477.738 477.738 0 0 0 33.83 43.25c-1.204-.4-2.853-.774-4.945-1.118-2.093-.344-4.33-.33-6.708.043-2.38.374-4.73 1.247-7.052 2.623s-4.313 3.526-5.977 6.45c-1.835 3.268-2.766 5.663-2.795 7.18-.028 1.52.43 2.495 1.376 2.925.946.43 2.18.488 3.698.172zm64.8-16.04c2.065 0 3.412.546 4.043 1.635-.975-.114-1.89-.028-2.75.258-.86.287-1.55.717-2.064 1.29-.517.574-.746 1.204-.688 1.892.057.688.517 1.348 1.376 1.978.345.288.717.545 1.118.774.4.23.83.402 1.29.516-1.147 1.434-2.638 2.666-4.472 3.698-1.836 1.032-3.842 1.548-6.02 1.548-1.72 0-2.867-.702-3.44-2.107-.572-1.405-.56-2.968.043-4.688.602-1.72 1.862-3.282 3.784-4.687 1.92-1.404 4.514-2.107 7.782-2.107zm-29.282-11.61a119.723 119.723 0 0 1 1.85-3.267c1.49-2.58 3.08-5.203 4.772-7.87a110.223 110.223 0 0 1 5.03-7.31c1.663-2.206 3.254-3.998 4.773-5.374 1.52-1.376 2.853-2.064 4-2.064.63 0 .83.473.602 1.42-.23.945-.816 2.192-1.763 3.74s-2.18 3.34-3.7 5.375a135.568 135.568 0 0 1-5.115 6.407 129.11 129.11 0 0 1-6.063 6.665 110.52 110.52 0 0 1-6.58 6.234 468.553 468.553 0 0 0 2.194-3.956zM14.868 55.465c.258-.802.7-1.734 1.333-2.795.63-1.06 1.463-2.15 2.495-3.27 1.032-1.117 2.235-2.063 3.61-2.837s2.926-1.26 4.646-1.462c1.72-.2 3.583.074 5.59.818a41.8 41.8 0 0 1-.472.774c-.145.23-.273.488-.388.774-.058 0-.086.058-.086.172a141.45 141.45 0 0 1-5.116 3.483 165.528 165.528 0 0 1-5.074 3.183c-1.578.946-2.967 1.677-4.17 2.193s-2.037.632-2.495.344c-.173-.114-.13-.572.128-1.376zM165.492 22.676c.344-.63.387-1.13.13-1.505-.26-.372-.69-.572-1.29-.6-.603-.03-1.29.1-2.064.386-.774.288-1.505.746-2.193 1.376-.458.46-.787.96-.99 1.505-.2.545-.356 1.19-.472 1.935a22.556 22.556 0 0 1-.516 2.408c-.23.86-.603 1.806-1.118 2.838-.4.688-.59 1.22-.56 1.59.03.375.187.575.473.603.287.03.645-.056 1.075-.257.43-.2.846-.53 1.246-.99.173-.17.503-.558.99-1.16a57.486 57.486 0 0 0 3.612-5.03 23.396 23.396 0 0 0 1.676-3.097zM197.727 54.862a155.37 155.37 0 0 0 6.75-2.967 182.302 182.302 0 0 0 5.03-2.45c1.348-.69 2.137-1.12 2.366-1.29.4-.288.673-.617.817-.99.143-.372.143-.688 0-.946-.145-.26-.417-.43-.817-.517-.4-.086-.918.043-1.548.387-.46.23-1.262.617-2.408 1.16a276.476 276.476 0 0 1-9.245 4.17 792.05 792.05 0 0 1-5.547 2.367 135.42 135.42 0 0 1-5.29 2.107c-1.69.632-3.167 1.118-4.428 1.462-1.893.516-3.556.832-4.988.946-1.435.115-2.495-.1-3.183-.645-.688-.544-.96-1.49-.817-2.838.143-1.348.817-3.254 2.02-5.72l2.1-4.114c.45-.333.888-.648 1.35-.994l-.008-.01c3.95-2.738 7.545-5.696 10.75-8.9 1.947 0 3.826-.014 5.632-.044 1.807-.028 3.44-.043 4.902-.043h5.718c.804 0 1.405-.143 1.808-.43.4-.286.602-.615.602-.99 0-.37-.2-.7-.602-.988-.402-.286-1.004-.43-1.807-.43-.63 0-2.235.043-4.815.13s-5.59.158-9.03.214c2.408-2.693 4.5-5.36 6.278-7.997 1.776-2.636 3.11-5.044 4-7.224.887-2.18 1.273-4 1.16-5.462-.116-1.462-.86-2.335-2.236-2.623-3.44-.802-6.637-.1-9.59 2.107-2.953 2.208-6.034 5.89-9.244 11.05a159.88 159.88 0 0 0-3.01 4.99 398.65 398.65 0 0 0-3.183 5.59c-2.352.057-4.472.085-6.363.085h-4.473c-.745-.056-1.32.03-1.72.258-.4.23-.616.502-.647.817-.027.315.086.602.345.86.258.258.702.387 1.333.387.402 0 1.535-.015 3.397-.044 1.862-.028 4.113-.043 6.75-.043a151.173 151.173 0 0 0-3.395 6.32c-1.062 2.094-2.05 4.058-2.968 5.892-.146.283-.275.56-.41.838a191.92 191.92 0 0 1-2.326 1.528 597.795 597.795 0 0 1-2.46 1.58c-.48.245-.817.58-1.005 1-.188.423-.23.8-.13 1.13.104.328.383.53.84.605.457.076 1.075-.09 1.853-.49.296-.168.767-.46 1.373-.847-.047.14-.1.28-.143.417-.572 1.835-.702 3.412-.388 4.73.315 1.32 1.175 2.322 2.58 3.01s3.597.89 6.578.602c1.948-.172 4.17-.602 6.665-1.29s5.03-1.505 7.61-2.45 5.12-1.933 7.614-2.965zM186.59 30.61a340.95 340.95 0 0 0 4.04-7.18c1.205-2.208 2.352-4.114 3.44-5.72 1.09-1.604 2.15-2.866 3.183-3.784 1.032-.917 2.12-1.376 3.27-1.376.8 0 1.044.617.73 1.85-.316 1.233-1.033 2.81-2.15 4.73-1.118 1.92-2.567 4.07-4.344 6.45a77.514 77.514 0 0 1-5.935 7.008c-.632.058-1.22.073-1.763.043a12.517 12.517 0 0 0-1.764.044l1.29-2.064zm-2.58 4.558h2.235a140.28 140.28 0 0 1-2.236 2.02c-.746.66-1.52 1.306-2.322 1.936l2.32-3.956zM442.22 46.047c-.2-.258-.53-.416-.988-.473-.46-.057-.945.058-1.462.344-.344.172-1.074.488-2.192.946-1.118.46-2.466.976-4.042 1.548-1.578.574-3.255 1.16-5.03 1.763a100.97 100.97 0 0 1-5.118 1.59 71.93 71.93 0 0 1-4.472 1.12c-1.348.287-2.337.4-2.967.343-.29 0-.446-.186-.475-.56-.03-.37.028-.83.172-1.375.143-.544.357-1.13.646-1.763.286-.63.572-1.232.86-1.806.687-1.204 1.017-2.207.988-3.01-.028-.802-.314-1.404-.858-1.806-.546-.4-1.333-.573-2.365-.516-1.032.058-2.18.288-3.44.688-1.03.402-2.294.99-3.784 1.763a70.8 70.8 0 0 0-4.6 2.623 64.043 64.043 0 0 0-4.56 3.096c-1.46 1.09-2.708 2.122-3.74 3.096.63-1.26 1.304-2.25 2.02-2.967a5.867 5.867 0 0 0 1.506-2.536c.056-.458-.102-.917-.474-1.376-.373-.458-.86-.83-1.462-1.118a5.5 5.5 0 0 0-1.892-.516c-.66-.056-1.247.086-1.764.43-.148.11-.304.252-.462.404a2.77 2.77 0 0 0-.482.112c-.63.23-1.634.674-3.01 1.333-1.376.66-2.98 1.405-4.816 2.236-1.835.83-3.77 1.69-5.805 2.58-2.036.89-3.985 1.69-5.848 2.407-1.864.718-3.556 1.29-5.074 1.72-1.52.43-2.65.617-3.396.56-.803-.058-1.147-.26-1.03-.603.113-.344.356-.745.73-1.204.37-.458.76-.946 1.16-1.462.4-.516.516-.974.344-1.376-.115-.4-.344-.817-.688-1.247s-.73-.817-1.16-1.16a4.025 4.025 0 0 0-1.377-.732c-.488-.143-.99-.1-1.505.13-.517.23-1.462.773-2.838 1.633-1.376.86-2.81 1.763-4.3 2.71a73.76 73.76 0 0 1-4.13 2.45c-1.26.688-2.006.946-2.234.774-.172-.114-.16-.56.043-1.333.2-.774.586-1.677 1.16-2.71.572-1.03 1.333-2.09 2.278-3.18.946-1.09 2.12-1.98 3.526-2.667 1.404-.688 3.023-1.075 4.86-1.16 1.833-.087 3.896.33 6.19 1.246.63.288 1.175.36 1.634.215.46-.14.788-.356.99-.644.2-.286.242-.63.128-1.032-.115-.4-.373-.716-.773-.946a46.228 46.228 0 0 0-2.408-.946c-1.09-.4-2.38-.716-3.87-.946-1.49-.23-3.096-.33-4.816-.3-1.72.03-3.455.343-5.203.945-1.623.56-3.18 1.4-4.68 2.502a3.88 3.88 0 0 0-.437.208c-.402.23-1.22.63-2.45 1.204a267.163 267.163 0 0 1-4.473 2.02c-1.75.775-3.698 1.592-5.85 2.452-2.148.86-4.328 1.692-6.535 2.494a132.764 132.764 0 0 1-6.536 2.193c-2.15.66-4.114 1.16-5.89 1.505-3.385.632-6.036.903-7.956.817-1.92-.086-3.298-.43-4.128-1.032-.832-.602-1.204-1.39-1.118-2.365.086-.974.474-2.064 1.16-3.268 1.033 1.147 2.41 1.892 4.13 2.236 1.72.344 3.425.344 5.116 0 1.69-.344 3.182-.974 4.472-1.892 1.29-.917 2.02-2.092 2.193-3.526.114-1.376-.187-2.522-.903-3.44-.717-.917-1.72-1.59-3.01-2.02-1.29-.43-2.738-.603-4.343-.517-1.606.087-3.256.403-4.946.947a18.76 18.76 0 0 0-4.543 2.193c-.425.188-1.086.46-1.99.817-1.234.488-2.71 1.032-4.43 1.634a208.1 208.1 0 0 1-5.547 1.85c-1.98.63-3.9 1.204-5.763 1.72a60.872 60.872 0 0 1-5.117 1.204c-1.548.288-2.724.402-3.525.344-.288 0-.43-.23-.43-.688 0-.458.086-1.002.258-1.634.172-.63.4-1.29.688-1.978.286-.688.603-1.318.946-1.892.688-1.204 1.018-2.193.99-2.967-.03-.775-.303-1.334-.818-1.678-.516-.344-1.262-.487-2.236-.43-.976.058-2.093.288-3.354.688-1.32.46-2.767 1.233-4.343 2.322a71.212 71.212 0 0 0-4.774 3.612l2.15-4.214a81.37 81.37 0 0 0 9.374-7.697c2.98-2.838 5.69-5.72 8.127-8.643 2.436-2.924 4.558-5.775 6.363-8.557 1.807-2.78 3.168-5.29 4.085-7.525.917-2.236 1.36-4.085 1.333-5.547-.03-1.46-.674-2.306-1.935-2.536-3.498-.63-7.066.503-10.707 3.397-3.642 2.897-7.438 7.9-11.395 15.008a3558.55 3558.55 0 0 1-4.6 8.127 654.842 654.842 0 0 0-5.59 10.062c-1.923 3.526-3.842 7.052-5.763 10.578-1.92 3.526-3.655 6.737-5.203 9.632a400.822 400.822 0 0 0-3.784 7.224c-.975 1.922-1.49 3.054-1.548 3.398-.114.688.043 1.247.473 1.677.43.43.976.73 1.634.903.66.172 1.332.187 2.02.043.688-.142 1.204-.443 1.548-.902.115-.172.503-.83 1.16-1.978.66-1.146 1.478-2.623 2.452-4.43.976-1.805 2.094-3.854 3.354-6.148 1.26-2.292 2.58-4.7 3.956-7.224 1.662-1.49 3.297-2.71 4.902-3.655 1.604-.946 2.81-1.56 3.612-1.85.114.804.215 1.65.3 2.538a9.33 9.33 0 0 0 .603 2.538 5.637 5.637 0 0 0 1.376 2.064c.603.574 1.447.918 2.537 1.032 1.26.172 2.81.144 4.645-.086a55.31 55.31 0 0 0 5.848-1.075 92.638 92.638 0 0 0 6.278-1.72c2.12-.66 4.086-1.304 5.892-1.935.37-.13.724-.257 1.074-.384a21.26 21.26 0 0 0-1.505 2.792c-.6 1.376-.73 2.666-.386 3.87.344 1.204 1.348 2.208 3.01 3.01 1.663.804 4.356 1.176 8.084 1.118 2.752-.056 5.633-.387 8.643-.99a96.916 96.916 0 0 0 8.945-2.235 118.89 118.89 0 0 0 8.557-2.925 191.314 191.314 0 0 0 7.396-3.01c1.32-.574 2.5-1.095 3.57-1.574-.015.025-.03.045-.044.07-1.26 2.18-2.078 3.955-2.45 5.33-.373 1.377-.46 2.452-.26 3.226.202.774.632 1.29 1.29 1.548.66.258 1.435.344 2.322.258.89-.086 1.807-.3 2.752-.645.946-.344 1.82-.716 2.623-1.118a75.178 75.178 0 0 0 3.613-1.936c1.26-.716 2.437-1.39 3.526-2.02 1.087-.63 1.99-1.162 2.708-1.592a34.48 34.48 0 0 1 1.247-.73c-.116.114-.402.5-.86 1.16-.46.66-.79 1.406-.99 2.236-.2.832-.085 1.59.345 2.28.43.687 1.533 1.117 3.312 1.29 1.146.115 2.666-.087 4.558-.603A91.252 91.252 0 0 0 371.1 58a111.787 111.787 0 0 0 6.75-2.623c2.292-.974 4.43-1.905 6.407-2.795a171.54 171.54 0 0 0 4.95-2.305 71.556 71.556 0 0 0-3.62 6.82c-.63 1.376-1.03 2.352-1.203 2.924-.114.46.072.934.56 1.42a4.86 4.86 0 0 0 1.763 1.118c.688.258 1.39.36 2.106.3.718-.056 1.247-.372 1.592-.945.917-1.604 2.264-3.225 4.042-4.86a58.397 58.397 0 0 1 5.547-4.514c1.92-1.377 3.74-2.55 5.46-3.527 1.72-.974 2.953-1.576 3.7-1.806a33.692 33.692 0 0 0-1.765 3.526c-.488 1.148-.774 2.165-.86 3.053-.086.89.07 1.634.473 2.236.4.602 1.146.933 2.236.99 1.203.17 2.75.115 4.643-.173a66.2 66.2 0 0 0 6.106-1.248c2.177-.544 4.398-1.175 6.664-1.892 2.264-.716 4.37-1.404 6.32-2.064 1.948-.66 3.626-1.29 5.03-1.892 1.405-.602 2.366-1.045 2.882-1.333.744-.457 1.204-.902 1.376-1.332s.16-.773-.04-1.03zm-174.19-11.31a79.153 79.153 0 0 1 1.978-3.61 624.64 624.64 0 0 1 4.473-7.87 128.486 128.486 0 0 1 4.73-7.61c1.548-2.293 3.038-4.2 4.472-5.72 1.433-1.52 2.723-2.28 3.87-2.28.803 0 1.146.504 1.032 1.506-.115 1.003-.616 2.365-1.505 4.085-.89 1.72-2.095 3.698-3.613 5.934a106.3 106.3 0 0 1-5.117 6.88 113.276 113.276 0 0 1-6.148 7.01 84.922 84.922 0 0 1-6.665 6.32c.915-1.662 1.747-3.21 2.493-4.644zm39.172 11.74c1.404-.658 2.65-.946 3.74-.86 1.09.086 1.964.445 2.624 1.075.658.632.932 1.376.817 2.236-.116.917-.632 1.634-1.55 2.15s-1.963.832-3.138.946c-1.176.116-2.38.015-3.612-.3-1.233-.315-2.222-.875-2.967-1.678 1.32-1.72 2.68-2.91 4.086-3.57zM152.64 123.79c-.374-.144-.875-.044-1.505.3-.402.23-1.22.63-2.45 1.204a267.163 267.163 0 0 1-4.473 2.02c-1.75.775-3.698 1.592-5.85 2.452-2.148.86-4.328 1.692-6.535 2.494a132.764 132.764 0 0 1-6.536 2.193c-2.148.66-4.113 1.16-5.89 1.505-3.384.632-6.035.903-7.955.817-1.92-.086-3.298-.43-4.128-1.032-.832-.602-1.204-1.39-1.118-2.365.085-.974.473-2.064 1.16-3.268 1.032 1.147 2.408 1.892 4.128 2.236 1.72.344 3.426.344 5.117 0 1.69-.344 3.182-.974 4.472-1.892 1.29-.917 2.02-2.092 2.193-3.526.114-1.376-.187-2.522-.903-3.44-.717-.917-1.72-1.59-3.01-2.02-1.29-.43-2.738-.603-4.343-.517-1.605.087-3.255.403-4.945.947a18.665 18.665 0 0 0-4.362 2.08c-.08.035-.158.068-.24.113l-2.58 1.29c-1.375.688-3.066 1.49-5.073 2.408-2.007.918-4.17 1.878-6.492 2.88a152.12 152.12 0 0 1-6.794 2.753 89.675 89.675 0 0 1-6.064 2.065c-1.836.545-3.212.79-4.128.73-.23 0-.23-.3 0-.902.23-.602.572-1.39 1.032-2.365a72.384 72.384 0 0 1 1.677-3.31c.658-1.233 1.304-2.452 1.935-3.656.63-1.26.932-2.292.903-3.096-.03-.802-.33-1.404-.903-1.806-.573-.4-1.348-.572-2.32-.516-.977.058-2.095.316-3.355.774-.918.344-1.992.817-3.225 1.42a56.735 56.735 0 0 0-3.827 2.063 61.328 61.328 0 0 0-3.956 2.538 74.627 74.627 0 0 0-3.613 2.666l3.183-6.02c3.096-2.006 6.063-4.356 8.9-7.052a85.465 85.465 0 0 0 7.783-8.428c2.35-2.924 4.4-5.833 6.15-8.73 1.747-2.893 3.08-5.503 3.998-7.825.917-2.323 1.377-4.258 1.377-5.806s-.603-2.464-1.807-2.752c-1.72-.344-3.396-.314-5.03.086-1.635.402-3.298 1.262-4.988 2.58-1.69 1.32-3.44 3.154-5.246 5.504-1.806 2.352-3.713 5.276-5.72 8.772a1217.26 1217.26 0 0 0-4.04 7.224 2267.94 2267.94 0 0 1-4.345 7.783 817.39 817.39 0 0 0-4.213 7.612c-.173.316-.334.616-.5.924a4.28 4.28 0 0 0-.402.194c-.46.23-1.262.617-2.408 1.16a276.476 276.476 0 0 1-9.245 4.17 792.05 792.05 0 0 1-5.547 2.367 135.42 135.42 0 0 1-5.29 2.107c-1.69.632-3.167 1.118-4.428 1.462-1.893.516-3.556.832-4.988.946-1.435.115-2.495-.1-3.183-.645-.688-.544-.96-1.49-.817-2.838.143-1.348.817-3.254 2.02-5.72l2.15-4.214c4.473-2.98 8.484-6.25 12.04-9.804 1.948 0 3.827-.013 5.633-.043 1.807-.03 3.44-.044 4.902-.044h5.718c.804 0 1.405-.143 1.808-.43.4-.286.603-.615.603-.99 0-.37-.2-.7-.602-.988-.4-.286-1.003-.43-1.806-.43-.63 0-2.235.043-4.815.13s-5.59.158-9.03.214c2.407-2.694 4.5-5.36 6.277-7.998 1.776-2.636 3.11-5.044 4-7.224.887-2.178 1.273-4 1.16-5.46-.116-1.463-.86-2.336-2.236-2.624-3.44-.802-6.636-.1-9.588 2.107-2.954 2.208-6.035 5.89-9.245 11.05a159.88 159.88 0 0 0-3.01 4.99 398.65 398.65 0 0 0-3.183 5.59c-2.352.057-4.472.085-6.363.085H9.84c-.744-.056-1.318.03-1.72.258-.4.23-.615.502-.646.817-.027.315.086.602.345.86.258.258.702.387 1.333.387.4 0 1.534-.014 3.396-.043 1.862-.028 4.113-.043 6.75-.043a151.173 151.173 0 0 0-3.395 6.32c-1.06 2.094-2.05 4.058-2.967 5.892-1.03 2.007-1.834 3.928-2.407 5.762-.572 1.835-.702 3.412-.388 4.73.316 1.32 1.176 2.322 2.58 3.01s3.598.89 6.58.602c1.947-.172 4.17-.602 6.664-1.29s5.03-1.505 7.61-2.45 5.118-1.936 7.612-2.968a155.37 155.37 0 0 0 6.75-2.967c1.58-.744 2.946-1.406 4.117-1.99-.31.595-.608 1.176-.89 1.732a136.8 136.8 0 0 0-2.41 4.945c-.602 1.32-.872 2.15-.816 2.494.058.516.288.933.688 1.247.4.315.89.53 1.462.645a8.725 8.725 0 0 0 1.72.172c.574 0 1.032-.057 1.376-.172.116-.057.46-.516 1.032-1.376h.086c.572-.975 1.647-2.12 3.225-3.44a70.593 70.593 0 0 1 5.03-3.827 75.736 75.736 0 0 1 5.032-3.225c1.576-.917 2.68-1.462 3.31-1.634l-1.89 3.44a82.66 82.66 0 0 0-1.592 3.182 28.973 28.973 0 0 0-1.333 3.268c-.746 2.064-.76 3.584-.043 4.558.716.976 2.507 1.204 5.375.688 1.318-.23 3.053-.7 5.203-1.42a190.36 190.36 0 0 0 6.88-2.45c2.436-.916 4.93-1.905 7.48-2.967 2.552-1.06 4.903-2.064 7.054-3.01a287.86 287.86 0 0 0 2.208-.984c-.398.692-.768 1.404-1.092 2.146-.602 1.376-.73 2.666-.387 3.87.343 1.204 1.347 2.208 3.01 3.01 1.662.804 4.355 1.176 8.083 1.118 2.752-.056 5.633-.387 8.643-.99a96.916 96.916 0 0 0 8.944-2.235 118.89 118.89 0 0 0 8.557-2.925 191.314 191.314 0 0 0 7.396-3.01 274.074 274.074 0 0 0 5.504-2.45c1.49-.69 2.437-1.147 2.838-1.377.63-.344 1.075-.745 1.333-1.204.258-.458.344-.86.258-1.204-.085-.344-.314-.587-.686-.73zm-85.226-10.665c.83-1.69 1.562-3.11 2.192-4.257 1.26-2.58 2.608-5.173 4.042-7.783 1.433-2.608 2.882-4.973 4.344-7.095 1.462-2.12 2.88-3.855 4.257-5.203 1.375-1.346 2.636-2.02 3.783-2.02.688 0 .945.558.773 1.676-.172 1.118-.702 2.566-1.59 4.343-.89 1.778-2.052 3.813-3.484 6.106a77.31 77.31 0 0 1-4.9 6.923 107.534 107.534 0 0 1-5.85 6.794c-2.063 2.207-4.157 4.142-6.277 5.804a190.823 190.823 0 0 0 2.71-5.29zm-37.367-4.515a340.95 340.95 0 0 0 4.042-7.18c1.203-2.208 2.35-4.114 3.44-5.72 1.087-1.604 2.148-2.866 3.18-3.784 1.033-.917 2.12-1.376 3.27-1.376.802 0 1.045.617.73 1.85-.315 1.233-1.032 2.81-2.15 4.73-1.117 1.92-2.566 4.07-4.343 6.45a77.514 77.514 0 0 1-5.934 7.008c-.632.058-1.22.073-1.763.043a12.517 12.517 0 0 0-1.764.044l1.29-2.064zm-2.58 4.558h2.236a140.28 140.28 0 0 1-2.236 2.02c-.745.66-1.52 1.306-2.32 1.936l2.32-3.956zm85.44 11.31c1.404-.66 2.65-.947 3.74-.86 1.09.085 1.964.444 2.624 1.074.66.632.933 1.376.818 2.236-.116.917-.632 1.634-1.55 2.15s-1.963.832-3.138.946c-1.176.116-2.38.015-3.612-.3-1.233-.315-2.222-.875-2.967-1.678 1.32-1.72 2.682-2.91 4.087-3.57zM440.35 123.703c-.4-.086-.918.043-1.548.387-.46.23-1.262.617-2.408 1.16a276.476 276.476 0 0 1-9.245 4.17 792.05 792.05 0 0 1-5.548 2.367 135.42 135.42 0 0 1-5.29 2.107c-1.69.632-3.167 1.118-4.428 1.462-1.893.516-3.556.832-4.988.946-1.434.115-2.494-.1-3.182-.645-.688-.544-.96-1.49-.817-2.838.143-1.348.817-3.254 2.02-5.72l2.15-4.214c4.473-2.98 8.484-6.25 12.04-9.804 1.948 0 3.827-.013 5.633-.043 1.807-.03 3.44-.044 4.902-.044h5.718c.804 0 1.405-.143 1.808-.43.4-.286.602-.615.602-.99 0-.37-.2-.7-.602-.988-.402-.286-1.004-.43-1.807-.43-.63 0-2.234.043-4.814.13s-5.59.158-9.03.214c2.408-2.694 4.5-5.36 6.278-7.998 1.776-2.636 3.11-5.044 4-7.224.887-2.178 1.273-4 1.16-5.46-.116-1.463-.86-2.336-2.236-2.624-3.44-.802-6.637-.1-9.59 2.107-2.953 2.208-6.034 5.89-9.244 11.05a159.88 159.88 0 0 0-3.01 4.99 398.65 398.65 0 0 0-3.183 5.59c-2.35.057-4.47.085-6.362.085h-4.473c-.744-.056-1.318.03-1.72.258-.4.23-.615.502-.646.817-.028.315.085.602.344.86.258.258.702.387 1.333.387.4 0 1.534-.014 3.396-.043 1.862-.028 4.113-.043 6.75-.043a151.173 151.173 0 0 0-3.395 6.32 1075.43 1075.43 0 0 0-2.215 4.393 2.59 2.59 0 0 0-.58.123c-.63.23-1.634.674-3.01 1.333-1.376.66-2.98 1.405-4.816 2.236-1.835.83-3.77 1.69-5.805 2.58-2.036.89-3.985 1.69-5.848 2.407-1.864.718-3.556 1.29-5.074 1.72-1.52.43-2.652.617-3.397.56-.803-.058-1.147-.26-1.03-.603.113-.344.356-.745.73-1.204.37-.458.76-.946 1.16-1.462.4-.516.516-.974.344-1.376-.115-.4-.344-.817-.688-1.247s-.732-.817-1.162-1.16a4.025 4.025 0 0 0-1.376-.732c-.488-.143-.99-.1-1.505.13-.517.23-1.462.773-2.838 1.633-1.377.86-2.812 1.763-4.3 2.71a73.76 73.76 0 0 1-4.13 2.45c-1.262.688-2.007.946-2.235.774-.172-.114-.16-.56.043-1.333.2-.774.587-1.677 1.16-2.71.573-1.03 1.334-2.09 2.28-3.18.945-1.09 2.12-1.98 3.525-2.667 1.404-.688 3.023-1.075 4.86-1.16 1.833-.087 3.896.33 6.19 1.246.63.288 1.175.36 1.634.215.46-.14.788-.356.99-.644.2-.286.242-.63.128-1.032-.115-.4-.373-.716-.773-.946a46.228 46.228 0 0 0-2.408-.946c-1.09-.4-2.38-.716-3.87-.946-1.49-.23-3.096-.33-4.816-.3-1.72.03-3.454.343-5.202.945-1.623.56-3.18 1.4-4.68 2.502-.138.055-.283.124-.437.208-.403.23-1.22.63-2.452 1.204a267.163 267.163 0 0 1-4.472 2.02c-1.75.775-3.698 1.592-5.85 2.452-2.148.86-4.328 1.692-6.535 2.494a132.764 132.764 0 0 1-6.535 2.193c-2.15.66-4.114 1.16-5.89 1.505-3.385.632-6.036.903-7.956.817-1.922-.086-3.3-.43-4.13-1.032-.83-.602-1.203-1.39-1.117-2.365.086-.974.474-2.064 1.16-3.268 1.033 1.147 2.41 1.892 4.13 2.236 1.72.344 3.425.344 5.116 0 1.69-.344 3.18-.974 4.47-1.892 1.29-.917 2.022-2.092 2.194-3.526.114-1.376-.187-2.522-.903-3.44-.716-.917-1.72-1.59-3.01-2.02-1.29-.43-2.737-.603-4.342-.517-1.605.087-3.255.403-4.945.947a18.734 18.734 0 0 0-4.548 2.197c-.182.07-.37.155-.568.254-.574.288-1.692.817-3.354 1.59a93.95 93.95 0 0 1-5.59 2.366 96.44 96.44 0 0 1-6.106 2.15c-2.007.63-3.642.946-4.9.946-.805 0-1.536-.258-2.194-.774-.66-.516-.933-1.49-.817-2.924.517-.63 1.003-1.26 1.463-1.892.4-.516.772-1.017 1.116-1.505.345-.486.603-.874.774-1.16.63-.918.658-1.605.086-2.065-.574-.458-1.32-.314-2.236.43-.86.803-1.777 1.95-2.752 3.44a60.44 60.44 0 0 1-3.31 4.558 34.146 34.146 0 0 1-4.086 4.3c-1.492 1.32-3.126 2.208-4.902 2.666-1.204.288-2.008.202-2.408-.258-.4-.458-.53-1.132-.387-2.02.143-.89.473-1.936.99-3.14a43.41 43.41 0 0 1 1.676-3.483 654.69 654.69 0 0 1 1.678-3.096c.517-.946.83-1.62.946-2.02.286-.975.07-1.577-.646-1.807-.717-.228-1.605-.185-2.665.13-1.063.314-2.137.802-3.226 1.46-1.09.66-1.863 1.363-2.322 2.108-.46.574-.976 1.462-1.548 2.666a20.616 20.616 0 0 0-1.376 3.87c-1.146 1.376-2.364 2.566-3.654 3.57-1.29 1.003-2.68 1.676-4.17 2.02-.746.172-1.134-.07-1.16-.73-.03-.66.112-1.52.43-2.58.313-1.06.715-2.25 1.203-3.57.485-1.318.9-2.58 1.246-3.784.344-1.204.53-2.264.56-3.182.027-.916-.302-1.49-.99-1.72-.976-.344-2.05-.443-3.225-.3a18.406 18.406 0 0 0-3.568.816c-1.204.4-2.38.875-3.525 1.42-.827.392-1.573.754-2.28 1.102a3.352 3.352 0 0 0-.385.145c-.4.173-1.49.718-3.268 1.635-1.778.918-3.97 1.95-6.58 3.096a244.675 244.675 0 0 1-8.6 3.57 78.164 78.164 0 0 1-9.417 3.053c1.776-1.548 3.168-3.253 4.17-5.117 1.004-1.862 1.534-3.612 1.593-5.246.056-1.634-.445-2.995-1.506-4.085-1.062-1.088-2.795-1.634-5.202-1.634-1.72 0-3.44.202-5.16.603-1.72.402-3.326.875-4.816 1.42a38.28 38.28 0 0 0-3.956 1.676 74.46 74.46 0 0 0-2.494 1.29c-.516.287-.86.63-1.03 1.03-.174.402-.2.76-.087 1.076.114.316.343.545.687.688.344.144.804.073 1.376-.215a43.372 43.372 0 0 1 3.053-1.463 42.99 42.99 0 0 1 3.097-1.204 30.897 30.897 0 0 1 2.752-.817c.83-.2 1.505-.3 2.02-.3 1.205 0 1.992.33 2.366.988.373.66.43 1.505.173 2.537-.258 1.033-.76 2.123-1.505 3.27a19.064 19.064 0 0 1-2.71 3.267 14.51 14.51 0 0 1-3.525 2.537c-1.29.66-2.566.99-3.827.99-.63 0-1.03-.186-1.203-.56-.173-.373-.26-.817-.26-1.333 0-.515-.014-1.044-.042-1.59-.028-.544-.157-1.017-.386-1.42-.516-.86-1.218-1.332-2.107-1.418-.888-.086-1.69.073-2.407.473a3.487 3.487 0 0 0-1.548 1.72c-.314.746-.186 1.548.387 2.408.4.574.89 1.16 1.46 1.763.574.602 1.277 1.148 2.107 1.634.832.488 1.807.89 2.925 1.204 1.118.315 2.364.473 3.74.473h.173c2.464 0 5.102-.3 7.91-.903a91.195 91.195 0 0 0 8.43-2.236c2.81-.888 5.56-1.877 8.256-2.967a150.34 150.34 0 0 0 7.268-3.138 121.587 121.587 0 0 0 5.418-2.666 72.35 72.35 0 0 0 2.58-1.413c.18-.038.363-.092.558-.18 1.09-.457 1.992-.844 2.71-1.16.716-.314 1.36-.587 1.935-.817.17-.056.128.245-.13.903-.26.66-.56 1.504-.903 2.536a65.502 65.502 0 0 0-1.032 3.44c-.344 1.262-.516 2.45-.516 3.57s.228 2.093.687 2.923c.46.83 1.318 1.362 2.58 1.59 2.236.4 4.485.144 6.75-.774 2.266-.916 4.286-2.264 6.064-4.042.115 1.148.474 2.165 1.076 3.053.602.89 1.647 1.477 3.14 1.763.974.23 1.962.272 2.966.13a12.85 12.85 0 0 0 2.924-.775 20.385 20.385 0 0 0 2.752-1.333 21.818 21.818 0 0 0 2.537-1.72c1.835-1.433 3.583-3.096 5.246-4.988.173.574.432 1.09.775 1.548.286.402.7.774 1.247 1.118.544.344 1.247.545 2.106.602 2.98.172 6.264-.444 9.848-1.85 2.244-.88 4.82-1.956 7.73-3.23-.573.908-1.103 1.845-1.54 2.844-.6 1.376-.73 2.666-.386 3.87.344 1.204 1.348 2.208 3.01 3.01 1.663.804 4.356 1.176 8.084 1.118 2.752-.056 5.633-.387 8.643-.99a96.916 96.916 0 0 0 8.944-2.235 118.89 118.89 0 0 0 8.558-2.925 191.314 191.314 0 0 0 7.396-3.01c1.32-.574 2.5-1.095 3.57-1.574-.015.025-.03.045-.044.07-1.26 2.18-2.078 3.955-2.45 5.33-.373 1.377-.46 2.452-.26 3.226.202.774.632 1.29 1.29 1.548.66.258 1.435.344 2.322.258.89-.086 1.807-.3 2.752-.645.946-.344 1.82-.716 2.623-1.118a75.178 75.178 0 0 0 3.612-1.936c1.26-.716 2.436-1.39 3.525-2.02 1.088-.63 1.99-1.162 2.71-1.592a34.48 34.48 0 0 1 1.246-.73c-.115.114-.4.5-.86 1.16-.46.66-.788 1.406-.988 2.236-.2.832-.086 1.59.344 2.28.43.687 1.533 1.117 3.312 1.29 1.146.115 2.666-.087 4.558-.603a91.252 91.252 0 0 0 6.15-1.935 111.787 111.787 0 0 0 6.75-2.623c2.292-.974 4.43-1.905 6.407-2.795a170.526 170.526 0 0 0 5.073-2.365c.48-.236.887-.43 1.257-.605a33.496 33.496 0 0 0-1.386 3.615c-.572 1.835-.702 3.412-.388 4.73.315 1.32 1.175 2.322 2.58 3.01s3.597.89 6.578.602c1.948-.173 4.17-.603 6.665-1.29s5.03-1.506 7.61-2.452 5.118-1.935 7.612-2.967a155.37 155.37 0 0 0 6.75-2.966 182.302 182.302 0 0 0 5.03-2.45c1.348-.69 2.137-1.12 2.366-1.29.4-.288.674-.617.818-.99.143-.372.143-.688 0-.946-.146-.257-.418-.43-.818-.515zm-25.285-15.093a340.95 340.95 0 0 0 4.042-7.18c1.204-2.208 2.35-4.114 3.44-5.72 1.088-1.604 2.15-2.866 3.182-3.784 1.03-.917 2.12-1.376 3.268-1.376.802 0 1.045.617.73 1.85-.315 1.233-1.032 2.81-2.15 4.73-1.117 1.92-2.566 4.07-4.343 6.45a77.514 77.514 0 0 1-5.934 7.008c-.63.058-1.218.073-1.762.043a12.517 12.517 0 0 0-1.764.044l1.29-2.064zm-2.58 4.558h2.236a140.28 140.28 0 0 1-2.235 2.02c-.745.66-1.52 1.306-2.32 1.936l2.32-3.956zm-98.942 11.31c1.404-.66 2.65-.947 3.74-.86 1.09.085 1.964.444 2.624 1.074.658.632.932 1.376.817 2.236-.116.917-.632 1.634-1.55 2.15s-1.963.832-3.138.946c-1.176.116-2.38.015-3.612-.3-1.233-.315-2.222-.875-2.967-1.678 1.32-1.72 2.68-2.91 4.086-3.57z"/></g></svg>